<mxfile host="app.diagrams.net" modified="2022-01-13T06:20:34.181Z" agent="5.0 (Macintosh; Intel Mac OS X 10_15_7) AppleWebKit/537.36 (KHTML, like Gecko) Chrome/97.0.4692.71 Safari/537.36" etag="jsKfe1nFZPEwpbcCiTS4" version="15.8.8" type="github">
  <diagram id="C5RBs43oDa-KdzZeNtuy" name="Page-1">
    <mxGraphModel dx="925" dy="801" grid="1" gridSize="10" guides="1" tooltips="1" connect="1" arrows="1" fold="1" page="1" pageScale="1" pageWidth="827" pageHeight="1169" math="0" shadow="0">
      <root>
        <mxCell id="WIyWlLk6GJQsqaUBKTNV-0" />
        <mxCell id="WIyWlLk6GJQsqaUBKTNV-1" parent="WIyWlLk6GJQsqaUBKTNV-0" />
        <mxCell id="H-1D8AhKlFouq-BWlYaf-11" style="edgeStyle=none;rounded=0;orthogonalLoop=1;jettySize=auto;html=1;exitX=0.5;exitY=1;exitDx=0;exitDy=0;entryX=0.5;entryY=0;entryDx=0;entryDy=0;" edge="1" parent="WIyWlLk6GJQsqaUBKTNV-1" source="H-1D8AhKlFouq-BWlYaf-0" target="H-1D8AhKlFouq-BWlYaf-2">
          <mxGeometry relative="1" as="geometry" />
        </mxCell>
        <mxCell id="H-1D8AhKlFouq-BWlYaf-0" value="用户画像dataset" style="rounded=1;whiteSpace=wrap;html=1;" vertex="1" parent="WIyWlLk6GJQsqaUBKTNV-1">
          <mxGeometry x="240" y="320" width="120" height="40" as="geometry" />
        </mxCell>
        <mxCell id="H-1D8AhKlFouq-BWlYaf-13" style="edgeStyle=none;rounded=0;orthogonalLoop=1;jettySize=auto;html=1;exitX=0.5;exitY=1;exitDx=0;exitDy=0;entryX=0.5;entryY=0;entryDx=0;entryDy=0;" edge="1" parent="WIyWlLk6GJQsqaUBKTNV-1" source="H-1D8AhKlFouq-BWlYaf-2" target="H-1D8AhKlFouq-BWlYaf-3">
          <mxGeometry relative="1" as="geometry" />
        </mxCell>
        <mxCell id="H-1D8AhKlFouq-BWlYaf-2" value="画像平台-画像导入配置" style="rounded=1;whiteSpace=wrap;html=1;" vertex="1" parent="WIyWlLk6GJQsqaUBKTNV-1">
          <mxGeometry x="220" y="400" width="160" height="40" as="geometry" />
        </mxCell>
        <mxCell id="H-1D8AhKlFouq-BWlYaf-16" style="edgeStyle=none;rounded=0;orthogonalLoop=1;jettySize=auto;html=1;exitX=0.5;exitY=1;exitDx=0;exitDy=0;entryX=0.5;entryY=0;entryDx=0;entryDy=0;" edge="1" parent="WIyWlLk6GJQsqaUBKTNV-1" source="H-1D8AhKlFouq-BWlYaf-3" target="H-1D8AhKlFouq-BWlYaf-5">
          <mxGeometry relative="1" as="geometry" />
        </mxCell>
        <mxCell id="H-1D8AhKlFouq-BWlYaf-3" value="用户画像&lt;b&gt;引擎&lt;/b&gt;unomi" style="rounded=1;whiteSpace=wrap;html=1;" vertex="1" parent="WIyWlLk6GJQsqaUBKTNV-1">
          <mxGeometry x="240" y="480" width="120" height="39" as="geometry" />
        </mxCell>
        <mxCell id="H-1D8AhKlFouq-BWlYaf-4" value="营销平台-联系人" style="rounded=1;whiteSpace=wrap;html=1;" vertex="1" parent="WIyWlLk6GJQsqaUBKTNV-1">
          <mxGeometry x="240" y="640" width="120" height="40" as="geometry" />
        </mxCell>
        <mxCell id="H-1D8AhKlFouq-BWlYaf-17" style="edgeStyle=none;rounded=0;orthogonalLoop=1;jettySize=auto;html=1;exitX=0.5;exitY=1;exitDx=0;exitDy=0;entryX=0.5;entryY=0;entryDx=0;entryDy=0;" edge="1" parent="WIyWlLk6GJQsqaUBKTNV-1" source="H-1D8AhKlFouq-BWlYaf-5" target="H-1D8AhKlFouq-BWlYaf-4">
          <mxGeometry relative="1" as="geometry" />
        </mxCell>
        <mxCell id="H-1D8AhKlFouq-BWlYaf-5" value="营销平台-联系人导入配置" style="rounded=1;whiteSpace=wrap;html=1;" vertex="1" parent="WIyWlLk6GJQsqaUBKTNV-1">
          <mxGeometry x="220" y="560" width="160" height="40" as="geometry" />
        </mxCell>
      </root>
    </mxGraphModel>
  </diagram>
</mxfile>
